<svg version="1.1" id="Layer_1" xmlns="http://www.w3.org/2000/svg" xmlns:xlink="http://www.w3.org/1999/xlink" x="0px" y="0px"
	 width="100%" viewBox="0 0 1024 1024" enable-background="new 0 0 1024 1024" xml:space="preserve">
<path fill="#000000" opacity="1.000000" stroke="none" 
	d="
M606.188171,472.887634 
	C608.089966,476.631439 609.515381,480.248871 611.615356,483.419647 
	C614.488220,487.757385 613.196777,490.353912 609.383972,493.320038 
	C591.850403,506.960022 573.415955,519.179993 553.701538,529.418884 
	C543.804138,534.559204 533.760803,539.418884 523.769470,544.377380 
	C522.460022,545.027283 521.199341,545.960999 519.456238,545.632080 
	C518.064575,543.744202 518.683105,541.519836 518.680786,539.455994 
	C518.639099,502.628174 518.650085,465.800293 518.654724,428.972412 
	C518.655090,426.306305 518.672729,423.665100 517.785400,421.073730 
	C516.104553,416.164886 512.162231,412.990509 507.988617,413.355011 
	C503.564545,413.741364 499.957794,417.725616 499.418518,422.992035 
	C499.232544,424.807983 499.329010,426.654816 499.328888,428.487518 
	C499.326294,467.815002 499.229279,507.143036 499.446716,546.469299 
	C499.475983,551.766113 498.187561,554.621155 492.775909,556.025513 
	C484.420776,558.193848 476.259308,561.110596 468.024170,563.736572 
	C466.746460,564.144104 465.504608,564.583313 464.176331,564.115051 
	C463.129333,562.715332 463.638428,561.164856 463.637726,559.718811 
	C463.616638,516.392029 463.612640,473.065277 463.658936,429.738525 
	C463.662567,426.341888 463.235687,423.070770 461.725891,420.048340 
	C459.838257,416.269470 456.882111,412.992432 452.497437,413.873016 
	C448.044800,414.767273 445.101929,418.289429 444.412933,423.040192 
	C444.104492,425.167114 444.246307,427.364655 444.246002,429.530151 
	C444.239563,473.690094 444.145966,517.850525 444.373749,562.009277 
	C444.400024,567.096558 442.610840,569.164124 437.984283,570.087280 
	C431.798950,571.321411 425.620514,572.700500 419.570892,574.468323 
	C415.016602,575.799133 413.710510,574.485779 413.741211,569.892456 
	C413.890594,547.563477 413.802551,525.232971 413.796753,502.902985 
	C413.788239,470.074585 413.831757,437.246002 413.695618,404.418121 
	C413.679993,400.648193 414.609894,398.405365 418.238159,396.662994 
	C430.202667,390.917358 438.414307,381.422546 442.920929,369.071838 
	C444.574493,364.540039 446.947968,363.547241 451.331940,363.566406 
	C485.326202,363.715179 519.321472,363.646179 553.316406,363.639557 
	C559.283752,363.638397 567.332642,357.481049 568.936096,351.793365 
	C569.570618,349.542572 568.718018,348.126129 566.591675,347.678467 
	C564.986267,347.340485 563.281128,347.402649 561.620911,347.409729 
	C525.297852,347.564972 488.973907,347.646912 452.652893,348.012970 
	C447.717285,348.062683 446.178864,346.462799 445.485107,341.672638 
	C442.361145,320.101837 423.525391,303.723877 402.723877,304.433319 
	C384.428955,305.057251 367.637878,320.753906 370.273926,340.368683 
	C371.605804,350.279358 380.699738,359.440552 390.154419,359.675842 
	C391.941833,359.720306 393.818726,359.964996 395.298431,358.557251 
	C395.062988,357.488068 394.134796,357.333344 393.394714,357.094513 
	C384.152313,354.111755 379.255829,345.335297 380.813477,335.339478 
	C382.129486,326.894531 390.491180,319.645416 399.786041,318.707520 
	C415.726654,317.099060 429.312347,329.950745 430.502686,345.953583 
	C432.522797,373.112000 404.248535,396.085724 372.318481,382.636810 
	C352.013367,374.084259 340.432343,352.806519 341.321075,330.799622 
	C342.481934,302.053864 366.488373,276.787903 400.615814,276.824585 
	C452.274292,276.880127 503.932953,276.759857 555.591553,276.708984 
	C563.079346,276.701599 565.662170,273.558197 564.628174,266.023682 
	C564.354065,264.026428 563.403931,262.940033 561.534912,262.738007 
	C559.389587,262.506073 557.220520,262.378845 555.062927,262.392670 
	C506.246948,262.705444 457.431213,263.052826 408.615265,263.368225 
	C400.730255,263.419159 399.957611,262.330414 399.597046,254.465485 
	C398.796539,237.005386 397.791290,219.554352 397.663422,202.071228 
	C397.613770,195.283005 398.281952,194.668304 405.145477,194.656326 
	C438.138916,194.598755 471.132568,194.620178 504.125671,194.489944 
	C528.448853,194.393906 552.772766,194.197281 577.092957,193.824432 
	C581.564514,193.755875 584.182678,194.649673 585.037415,199.594559 
	C587.651001,214.715424 597.467834,223.360992 611.561951,227.734268 
	C614.694702,228.706345 616.475037,230.356400 617.718140,233.483994 
	C621.641785,243.355865 623.753296,253.409927 623.472656,264.115387 
	C623.141052,276.766022 623.417908,289.436615 622.323181,302.060181 
	C621.971680,306.114441 623.573120,308.566498 627.132751,310.395996 
	C642.538391,318.313873 657.845337,326.423462 673.241760,334.359497 
	C675.409485,335.476837 677.297424,336.512512 677.785278,339.152039 
	C680.180908,352.112915 688.624023,360.203033 699.821167,365.808990 
	C703.763000,367.782532 704.458374,369.644257 702.635376,373.842499 
	C688.123352,407.262817 668.032227,436.786377 641.982605,462.273285 
	C639.665283,464.540527 637.220642,465.504944 633.983887,465.435059 
	C626.155518,465.265991 618.320496,465.351898 610.488647,465.406830 
	C604.178101,465.451080 603.531128,466.534027 606.188171,472.887634 
z"/>
<path fill="#000000" opacity="1.000000" stroke="none" 
	d="
M283.377991,295.836060 
	C285.044250,302.498932 283.478577,309.139832 286.195862,316.251190 
	C289.227264,301.023163 294.022430,287.283234 299.439484,273.741638 
	C300.340240,271.489929 299.008820,269.504608 298.168030,267.549683 
	C292.641205,254.698914 289.432404,241.304642 289.806183,227.306900 
	C290.487122,201.806656 300.573822,179.943115 316.604858,160.538391 
	C317.000916,160.059021 317.646454,159.785782 319.059662,158.799301 
	C327.247681,187.407990 325.804993,215.068130 317.107056,242.859009 
	C320.205292,239.033142 323.283234,235.190659 326.406311,231.385193 
	C331.487335,225.194016 336.779510,219.107178 342.913574,214.019165 
	C348.924835,209.033035 350.572083,202.771042 350.628571,195.611481 
	C350.928406,157.617401 372.016998,133.310547 403.229675,115.673431 
	C403.892822,115.298714 404.761841,115.288322 406.311279,114.926826 
	C405.245667,140.602264 397.252380,163.076065 380.790283,182.344940 
	C382.337280,183.840851 383.354065,182.755508 384.141632,182.270706 
	C394.666077,175.792145 405.802856,170.518204 417.056122,165.482422 
	C419.713776,164.293152 421.777100,162.676666 423.596985,160.345657 
	C436.263367,144.121796 451.718323,131.891556 472.522430,128.152008 
	C487.384674,125.480522 502.314423,125.830139 517.135498,128.900681 
	C517.731506,129.024155 518.253967,129.502151 519.231506,130.051361 
	C514.377930,136.952148 508.432251,142.428406 502.160217,147.493393 
	C482.422913,163.432297 459.942688,171.866074 434.409821,171.285385 
	C428.771820,171.157166 423.721832,172.297287 418.542114,174.584122 
	C386.526123,188.719040 358.520294,208.297577 335.462708,234.752884 
	C334.162476,236.244705 332.709106,237.653046 331.768951,240.728455 
	C346.605011,230.987030 360.920807,221.884262 379.563324,223.453949 
	C377.842346,231.648163 373.890930,237.727631 369.182190,243.322632 
	C354.818207,260.390228 337.033447,271.571838 314.554260,274.368896 
	C310.744385,274.842957 308.314026,276.377869 306.730316,280.124756 
	C300.611176,294.601868 296.081421,309.513519 293.632202,325.035461 
	C293.121521,328.272064 293.970764,331.684601 292.511749,334.963776 
	C301.136688,314.503357 309.874023,294.254242 334.441864,287.554199 
	C336.371124,293.304108 334.927521,298.302460 333.678436,303.204803 
	C328.036163,325.348999 316.226501,343.836884 299.140472,358.760590 
	C293.534576,363.657074 292.175018,368.609406 293.299896,375.646088 
	C297.368408,401.097168 305.619019,424.865417 320.701233,447.629089 
	C313.983643,422.945038 311.397644,399.888763 325.560944,377.570862 
	C329.916870,380.692322 331.609283,384.695374 333.353333,388.523865 
	C342.907562,409.496826 343.357971,431.334045 338.869720,453.474548 
	C335.769165,468.769623 335.428253,468.858917 346.967682,479.651398 
	C357.567719,489.565277 368.926453,498.563354 381.306183,506.212067 
	C388.026886,510.364441 388.423645,511.431671 386.538147,519.733521 
	C384.127350,520.435669 382.445984,518.762939 380.674316,517.707214 
	C348.037476,498.260803 322.160492,472.218933 304.089661,438.678070 
	C301.999237,434.798096 299.369904,432.406494 295.172546,430.763367 
	C259.132782,416.655090 238.856964,390.299011 234.504181,351.763428 
	C234.152222,348.647614 233.116913,345.582153 234.185150,342.442688 
	C250.646667,342.280670 274.478302,367.766479 288.669189,400.400024 
	C286.970062,391.756927 285.210724,383.122742 284.363953,374.345428 
	C283.837433,368.887787 282.692291,363.387207 283.012878,357.976288 
	C283.417847,351.140991 280.602051,346.558319 276.039886,341.883392 
	C262.723450,328.237854 253.640472,312.099792 250.182297,293.194580 
	C246.507339,273.104279 248.932617,253.549179 256.355988,233.209167 
	C272.202820,251.770905 280.864532,272.207275 283.377991,295.836060 
z"/>
<path fill="#000000" opacity="1.000000" stroke="none" 
	d="
M732.918213,682.482056 
	C736.041748,699.608826 734.860962,715.751953 725.745483,730.565613 
	C715.537292,747.154968 699.907104,755.613281 681.093201,757.007385 
	C665.037170,758.197083 648.822937,757.253296 632.821777,757.253296 
	C631.148315,755.563904 631.683533,753.627441 631.681763,751.873901 
	C631.645874,716.059387 631.707581,680.244690 631.582214,644.430603 
	C631.567566,640.269287 632.494568,638.415405 637.113525,638.610107 
	C651.904785,639.233643 666.733093,637.955627 681.520752,639.612000 
	C704.945007,642.235718 726.659302,655.361572 732.918213,682.482056 
M654.330872,701.499939 
	C654.330566,711.645325 654.484558,721.794067 654.258240,731.934448 
	C654.160095,736.333313 655.862732,737.903931 660.120239,737.720886 
	C665.267029,737.499573 670.433777,737.778076 675.584839,737.616028 
	C691.996643,737.099854 704.801575,726.952393 709.176514,711.247498 
	C710.899780,705.061401 711.032715,698.749512 710.568298,692.465210 
	C709.357300,676.078064 699.265625,664.317322 683.298584,660.209839 
	C675.808960,658.283081 668.174500,658.412659 660.530090,658.382690 
	C655.842468,658.364319 654.148743,660.358154 654.249329,665.075928 
	C654.501099,676.879150 654.331726,688.691284 654.330872,701.499939 
z"/>
<path fill="#000000" opacity="1.000000" stroke="none" 
	d="
M307.762146,900.401245 
	C293.389160,900.417908 293.337891,900.433411 289.241577,886.894104 
	C281.058167,859.845581 272.915192,832.784729 264.842133,805.703186 
	C264.343414,804.030151 263.238617,802.324890 264.299866,799.742676 
	C269.625732,799.742676 275.232574,799.676758 280.836761,799.770447 
	C283.633514,799.817261 283.572845,802.417664 284.070038,804.168701 
	C289.559906,823.503174 294.929291,842.871704 300.383209,862.216492 
	C301.090454,864.724976 301.441467,867.398132 303.222321,869.812927 
	C305.065491,868.435669 305.190338,866.355896 305.727570,864.569092 
	C311.710724,844.669678 317.749207,824.785400 323.492188,804.816406 
	C324.617737,800.902832 326.388824,799.572083 330.419067,799.573914 
	C343.801178,799.580139 343.913696,799.397156 347.801880,812.105835 
	C353.100403,829.424316 358.194122,846.805420 363.409424,864.149475 
	C364.119598,866.511169 365.024811,868.814209 366.268921,872.371887 
	C369.607147,860.955872 372.643524,850.710693 375.595367,840.441223 
	C378.993225,828.619995 382.481873,816.820374 385.582306,804.920471 
	C386.669403,800.747986 388.672943,799.255493 392.884583,799.569214 
	C397.324402,799.900024 401.807953,799.643494 406.165405,799.643494 
	C407.006500,802.684631 405.659973,804.793945 405.011230,806.928101 
	C396.065796,836.355530 386.967133,865.736328 378.040436,895.169373 
	C376.917267,898.872620 375.282654,900.534607 371.095367,900.506348 
	C356.762115,900.409485 356.816498,900.565491 352.559174,886.644043 
	C347.162415,868.996643 341.667694,851.379150 336.200317,833.753418 
	C335.871979,832.694946 335.411407,831.677429 334.634003,829.658020 
	C329.346069,846.595337 324.355072,862.575684 319.368317,878.557373 
	C317.535828,884.429993 315.633728,890.282654 313.919922,896.189819 
	C313.056610,899.165649 311.503815,900.850220 307.762146,900.401245 
z"/>
<path fill="#000000" opacity="1.000000" stroke="none" 
	d="
M396.086670,650.917664 
	C413.135925,669.045837 407.213806,695.003479 382.146057,710.385803 
	C392.204590,725.533875 402.255920,740.671143 412.557220,756.184814 
	C407.971130,758.315247 403.807770,757.285583 399.821716,757.330566 
	C386.286377,757.483582 386.343842,757.351318 379.152863,745.928467 
	C373.124359,736.352112 366.954071,726.864685 360.812012,717.360291 
	C359.008301,714.569214 347.800964,712.724548 345.285492,714.799805 
	C343.785400,716.037415 344.240356,717.869385 344.234100,719.482544 
	C344.192108,730.305237 344.073944,741.130554 344.269012,751.949768 
	C344.341827,755.988831 343.096252,757.744873 338.875061,757.446594 
	C334.898712,757.165588 330.870544,757.157776 326.895294,757.445496 
	C322.597809,757.756592 321.552612,755.857361 321.587738,751.889893 
	C321.742493,734.408081 321.652802,716.924133 321.652496,699.440918 
	C321.652161,681.125183 321.767395,662.808228 321.568878,644.494629 
	C321.521729,640.144409 322.853363,638.608398 327.259949,638.757996 
	C341.386749,639.237488 355.542114,638.041443 369.661713,639.613403 
	C379.518890,640.710876 388.390717,643.936340 396.086670,650.917664 
M374.185181,661.191772 
	C365.403198,656.648743 355.963593,658.743652 346.763702,658.549805 
	C344.608276,658.504395 344.238159,660.393799 344.234741,662.157959 
	C344.216064,671.794617 344.217499,681.431335 344.228729,691.067993 
	C344.230774,692.829224 344.490448,694.572327 346.771027,694.594543 
	C354.881012,694.673767 363.073730,695.488220 370.909729,692.513550 
	C376.770569,690.288696 380.856018,686.289490 381.560150,679.889099 
	C382.341614,672.785950 382.231598,665.754822 374.185181,661.191772 
z"/>
<path fill="#000000" opacity="1.000000" stroke="none" 
	d="
M232.838959,735.221436 
	C244.453598,741.640564 256.503906,740.897949 265.394379,733.495850 
	C272.745483,727.375427 274.467743,718.911560 274.570587,710.119080 
	C274.814240,689.292542 274.647644,668.461243 274.655090,647.631897 
	C274.657959,639.653625 274.668213,639.653076 282.881042,639.646667 
	C285.213928,639.644775 287.573273,639.871826 289.874237,639.600891 
	C294.734985,639.028687 296.531738,640.595764 296.467560,645.862671 
	C296.183441,669.187317 296.522491,692.519043 296.301819,715.845032 
	C296.077332,739.568237 278.949341,757.386169 255.441711,759.479614 
	C245.106934,760.399902 235.134308,759.605957 225.658264,755.517090 
	C207.525864,747.693298 199.530228,732.604126 198.867706,713.917297 
	C198.053452,690.950562 198.757675,667.932373 198.594177,644.937927 
	C198.564423,640.751709 199.984833,639.300049 204.070007,639.578308 
	C208.050873,639.849487 212.080231,639.862549 216.059402,639.580872 
	C220.266525,639.283142 221.452423,640.982483 221.422577,645.049377 
	C221.264923,666.544128 221.175186,688.042725 221.431732,709.535645 
	C221.549683,719.417297 223.634628,728.796509 232.838959,735.221436 
z"/>
<path fill="#000000" opacity="1.000000" stroke="none" 
	d="
M496.899475,757.385010 
	C492.580383,757.379150 488.733521,757.130676 484.929108,757.427124 
	C480.637024,757.761597 479.544586,755.882935 479.592255,751.909607 
	C479.757965,738.097046 479.651031,724.281250 479.650696,710.466675 
	C479.650177,688.496460 479.761841,666.525330 479.563751,644.556885 
	C479.522217,639.951355 481.018005,638.437988 485.566711,638.618164 
	C499.516937,639.170532 513.550781,637.650635 527.429871,639.727234 
	C541.481079,641.829529 554.869629,646.119324 561.254639,660.269592 
	C570.344971,680.415100 563.492493,710.537109 532.099121,715.349976 
	C523.976562,716.595337 515.839539,716.379700 507.702393,716.249268 
	C503.669708,716.184631 502.135468,717.455017 502.250275,721.692871 
	C502.525085,731.838257 502.231750,741.997925 502.393158,752.148193 
	C502.451874,755.841003 501.520844,757.983704 496.899475,757.385010 
M502.336823,668.584229 
	C502.339478,676.246704 502.347992,683.909241 502.340881,691.571716 
	C502.338928,693.674683 502.375549,695.813538 505.282288,695.746460 
	C513.067383,695.567078 520.927979,696.594849 528.565796,694.071777 
	C537.641724,691.073669 541.461914,684.908264 540.627441,674.295715 
	C540.022522,666.602356 534.438232,660.881470 526.145325,659.393250 
	C519.876831,658.268188 513.556091,658.363831 507.227325,658.408142 
	C503.664703,658.433044 501.985382,659.983826 502.319092,663.621643 
	C502.440308,664.943115 502.338196,666.285095 502.336823,668.584229 
z"/>
<path fill="#000000" opacity="1.000000" stroke="none" 
	d="
M872.230591,637.749878 
	C883.940063,635.802612 894.862305,636.905884 905.209595,641.943054 
	C914.106628,646.274231 918.830750,653.814087 920.985779,663.220947 
	C921.529236,665.593201 920.955017,666.901794 918.354492,667.522400 
	C913.997192,668.562195 909.715576,669.932861 905.430603,671.256592 
	C903.035156,671.996643 901.888184,671.117188 900.907715,668.873535 
	C895.621460,656.776367 884.387146,652.518555 872.670959,657.930054 
	C867.669983,660.239929 864.700195,664.104858 864.470947,669.497253 
	C864.248352,674.732178 866.965210,678.613586 871.560547,681.226196 
	C877.974731,684.872864 885.049805,686.855774 891.855835,689.520447 
	C896.497559,691.337708 901.126526,693.198425 905.693176,695.195129 
	C928.020386,704.957642 925.360291,735.257446 914.270935,746.807251 
	C904.120728,757.378845 891.585938,760.585083 877.502625,759.720459 
	C869.061890,759.202209 861.131165,757.044250 853.846863,752.683899 
	C844.689148,747.202209 839.742126,738.964600 837.784912,728.280884 
	C844.176636,725.506348 850.681763,723.686584 857.012390,721.808472 
	C859.212830,723.382263 859.279724,725.740967 860.154968,727.649475 
	C865.930786,740.244629 883.363037,744.999146 894.658447,736.998840 
	C901.836609,731.914734 901.858521,720.191650 894.585815,715.066650 
	C889.219360,711.284912 882.994629,709.338806 876.854248,707.225708 
	C871.669922,705.441711 866.491150,703.615723 861.412048,701.556335 
	C844.722778,694.789856 840.558777,682.387817 843.286072,665.484131 
	C845.873657,649.446350 856.901550,641.475220 872.230591,637.749878 
z"/>
<path fill="#000000" opacity="1.000000" stroke="none" 
	d="
M752.655457,671.999878 
	C752.658081,662.336914 752.790894,653.171326 752.601685,644.012329 
	C752.523499,640.226257 753.630676,638.688904 757.672852,638.727844 
	C777.829468,638.922424 797.988831,638.945740 818.146301,638.845886 
	C821.956238,638.826965 823.390930,639.914185 823.433289,643.940918 
	C823.590088,658.881958 823.725159,658.921509 809.052063,658.895813 
	C799.725708,658.879517 790.397583,658.804504 781.074341,658.583008 
	C777.237061,658.491943 775.120850,659.501221 775.288574,663.888123 
	C775.536621,670.376038 775.470337,676.883301 775.305847,683.376526 
	C775.222717,686.655579 776.501770,687.754761 779.711487,687.721924 
	C791.205566,687.604187 802.703247,687.791931 814.196045,687.625793 
	C818.020325,687.570496 819.725647,688.745239 819.398010,692.762207 
	C819.128052,696.072266 819.182739,699.431091 819.382385,702.750977 
	C819.592407,706.243469 818.171143,707.412231 814.729187,707.366516 
	C803.569031,707.218262 792.400818,707.503906 781.245911,707.220093 
	C776.622742,707.102539 775.031433,708.603149 775.267029,713.218933 
	C775.597778,719.699402 775.567017,726.219177 775.272095,732.703125 
	C775.085632,736.802612 776.721985,737.828125 780.526428,737.773438 
	C793.352112,737.589172 806.184509,737.831787 819.008301,737.588989 
	C823.454224,737.504883 825.192810,738.725464 825.134460,743.463806 
	C824.963013,757.397095 825.141724,757.393188 811.126648,757.391785 
	C793.467163,757.390076 775.807678,757.409668 758.148193,757.387695 
	C756.524353,757.385681 754.820435,757.794250 752.655823,756.451111 
	C752.655823,728.703735 752.655823,700.601868 752.655457,671.999878 
z"/>
<path fill="#000000" opacity="1.000000" stroke="none" 
	d="
M824.661682,888.981018 
	C824.665161,860.990662 824.787170,833.497131 824.562744,806.006531 
	C824.521790,800.986145 826.027161,799.888916 830.975708,799.401611 
	C840.353394,798.478210 846.114868,802.075928 851.669922,809.497986 
	C866.832458,829.756897 882.881104,849.352295 898.557861,869.226990 
	C899.257324,870.113831 899.752869,871.161377 900.343506,872.134033 
	C900.779236,871.875427 901.215027,871.616760 901.650757,871.358093 
	C901.650757,867.419922 901.650635,863.481689 901.650879,859.543518 
	C901.651917,841.381775 901.748718,823.219177 901.580322,805.059021 
	C901.542725,801.005188 902.727234,799.441467 906.938171,799.573730 
	C922.156372,800.051575 919.806702,797.242310 919.907410,812.461731 
	C920.087036,839.619629 919.851501,866.780273 920.037109,893.938110 
	C920.070618,898.843445 918.687805,900.236389 913.604675,900.624390 
	C904.287781,901.335632 898.108398,898.488586 892.318787,890.696472 
	C877.529663,870.792175 861.626282,851.715759 846.177612,832.301147 
	C845.581116,831.551514 845.076721,830.728699 844.529358,829.940002 
	C844.137512,830.145142 843.745667,830.350220 843.353821,830.555359 
	C843.353821,853.604919 843.353821,876.654480 843.353821,899.939331 
	C837.705261,900.781189 832.577148,900.342590 827.466370,900.301086 
	C825.267151,900.283203 824.703308,898.859802 824.700989,896.976257 
	C824.697937,894.477112 824.675415,891.978027 824.661682,888.981018 
z"/>
<path fill="#000000" opacity="1.000000" stroke="none" 
	d="
M134.000107,639.630249 
	C147.660110,639.633423 160.821976,639.763489 173.978943,639.565918 
	C178.076828,639.504395 179.424423,640.815125 179.434113,644.968811 
	C179.467377,659.255798 179.611221,659.256470 165.467957,659.263855 
	C155.473083,659.269104 145.476471,659.380676 135.484238,659.219910 
	C131.594269,659.157288 130.135651,660.586792 130.283508,664.496155 
	C130.516281,670.650940 130.574829,676.832397 130.267517,682.980591 
	C130.053131,687.270020 131.329559,688.877502 135.847015,688.757812 
	C146.833725,688.466797 157.838684,688.861877 168.825211,688.567566 
	C173.337585,688.446594 174.451324,690.054016 174.425323,694.326660 
	C174.345749,707.400391 174.507904,707.397766 161.209015,707.392029 
	C152.879913,707.388489 144.550735,707.379456 136.221771,707.415833 
	C134.423828,707.423706 132.554352,707.138367 130.380798,708.399719 
	C130.380798,717.324341 130.378098,726.451172 130.382248,735.577942 
	C130.383743,738.855652 132.752884,738.641663 134.952011,738.643066 
	C148.112000,738.651550 161.274811,738.810547 174.430389,738.571777 
	C178.930466,738.490173 180.485703,739.816833 180.441742,744.469971 
	C180.314636,757.922607 180.504852,757.906006 166.938934,757.909180 
	C149.115158,757.913391 131.290253,757.848145 113.468468,758.047791 
	C109.238152,758.095215 107.577446,756.938538 107.595245,752.433411 
	C107.736771,716.618835 107.723442,680.803284 107.590363,644.988647 
	C107.575012,640.857971 108.884583,639.410828 113.013458,639.569153 
	C119.833092,639.830627 126.670296,639.634155 134.000107,639.630249 
z"/>
<path fill="#000000" opacity="1.000000" stroke="none" 
	d="
M463.370911,880.559387 
	C459.991486,875.372498 456.843262,870.466309 453.641846,865.595032 
	C451.771545,862.749207 444.513885,861.041748 441.580872,862.710999 
	C439.548920,863.867432 440.082642,865.910034 440.071808,867.643188 
	C440.013367,876.973083 439.916931,886.307068 440.138184,895.632385 
	C440.225647,899.318542 439.101074,900.504578 435.322235,900.503174 
	C421.202789,900.497864 421.159912,900.630981 421.126068,886.528748 
	C421.062103,859.870728 421.037201,833.212646 421.031189,806.554565 
	C421.029633,799.667480 421.095001,799.479309 427.975861,799.680664 
	C440.601257,800.049988 453.346191,798.162048 465.840118,800.807434 
	C490.097107,805.943665 499.557800,831.743958 484.240936,850.381775 
	C480.977997,854.352051 476.505524,856.593445 471.325989,859.366943 
	C480.293549,872.836731 489.149658,886.139038 498.572601,900.292847 
	C490.986359,900.292847 484.396301,900.313477 477.806519,900.280334 
	C475.793457,900.270264 475.092590,898.551392 474.199127,897.188721 
	C470.638153,891.757935 467.116180,886.301636 463.370911,880.559387 
M452.348694,815.386169 
	C440.033630,815.380920 440.033478,815.380920 440.073212,827.830933 
	C440.076935,828.995728 440.086090,830.160522 440.090973,831.325317 
	C440.158844,847.493408 440.268951,847.590271 456.355682,845.594360 
	C456.685394,845.553467 457.016785,845.518799 457.342896,845.457336 
	C466.917206,843.654114 472.172974,837.681580 471.622467,829.234497 
	C471.062988,820.648865 465.422821,815.870239 455.283661,815.399963 
	C454.619385,815.369141 453.952637,815.390259 452.348694,815.386169 
z"/>
<path fill="#000000" opacity="1.000000" stroke="none" 
	d="
M167.510681,846.254883 
	C163.780655,852.528320 158.414307,856.292603 151.488647,859.200073 
	C160.509933,872.743530 169.320480,885.970581 178.920120,900.382263 
	C171.235107,900.382263 164.543777,900.482727 157.859085,900.316528 
	C156.033951,900.271179 155.353516,898.308960 154.455612,896.931641 
	C147.911957,886.893921 141.384949,876.845337 134.831482,866.814026 
	C132.184586,862.762390 126.813942,860.988159 122.311554,862.492065 
	C119.844055,863.316223 120.373550,865.326111 120.364166,867.053345 
	C120.314400,876.211548 120.364136,885.370300 120.318077,894.528503 
	C120.309090,896.315247 120.729744,898.185303 119.570976,900.160522 
	C113.954941,900.160522 108.214081,900.160522 102.602737,900.160522 
	C101.242073,898.509460 101.674484,896.775757 101.672951,895.169189 
	C101.644478,865.362488 101.750626,835.555054 101.553215,805.749695 
	C101.521446,800.953064 102.892387,799.288513 107.738136,799.563721 
	C120.507027,800.288879 133.397034,798.283936 146.079407,800.752136 
	C158.512329,803.171753 168.402023,809.127625 170.887085,822.671021 
	C172.341965,830.599976 171.850845,838.604004 167.510681,846.254883 
M137.005234,815.399475 
	C132.845840,815.386353 128.684372,815.448914 124.527786,815.334045 
	C121.640579,815.254272 120.262260,816.270935 120.314873,819.373230 
	C120.441803,826.858032 120.408913,834.347046 120.322334,841.833069 
	C120.291550,844.495056 121.181076,845.923096 124.030937,845.838196 
	C128.353836,845.709412 132.708817,845.975708 136.998550,845.551880 
	C147.410339,844.522766 152.396027,838.514160 151.813156,828.165344 
	C151.382706,820.522583 148.278183,817.683289 137.005234,815.399475 
z"/>
<path fill="#000000" opacity="1.000000" stroke="none" 
	d="
M214.000214,799.634216 
	C225.828308,799.639160 237.158035,799.754272 248.483597,799.587463 
	C252.147934,799.533569 253.486557,800.756165 253.397797,804.463074 
	C253.071503,818.091431 255.185547,816.019470 241.821091,816.186401 
	C233.492844,816.290466 225.160172,816.327332 216.833923,816.165771 
	C213.377625,816.098694 212.052429,817.341736 212.163544,820.811707 
	C212.339386,826.303101 212.294281,831.807922 212.137360,837.301147 
	C212.045013,840.533264 213.311981,841.720459 216.546097,841.676697 
	C226.206497,841.545837 235.872238,841.759888 245.530899,841.576050 
	C249.243179,841.505371 250.467880,842.842529 250.394775,846.502869 
	C250.139175,859.300110 251.699905,857.169189 240.024185,857.328979 
	C232.195908,857.436218 224.363052,857.455566 216.536240,857.305298 
	C213.302948,857.243225 212.051239,858.416809 212.130768,861.663086 
	C212.281647,867.823120 212.293045,873.992859 212.123932,880.152039 
	C212.026581,883.696960 213.549301,884.746094 216.911316,884.702637 
	C227.571259,884.564819 238.236694,884.788574 248.894592,884.586914 
	C252.821960,884.512634 254.177658,885.898071 254.099014,889.779907 
	C253.848373,902.150208 255.150223,900.298706 243.901917,900.372559 
	C228.909470,900.471069 213.914261,900.272583 198.923843,900.472107 
	C194.730774,900.527893 192.998505,899.473389 193.016937,894.928772 
	C193.137924,865.110352 193.085266,835.290527 192.911987,805.472229 
	C192.885498,800.913147 194.424194,799.228210 199.012634,799.559937 
	C203.818527,799.907410 208.669159,799.635864 214.000214,799.634216 
z"/>
<path fill="#000000" opacity="1.000000" stroke="none" 
	d="
M791.972290,816.219421 
	C782.651489,816.223328 773.825562,816.316162 765.002930,816.184937 
	C761.660461,816.135254 760.134460,817.166748 760.284180,820.756775 
	C760.505920,826.075439 760.511047,831.418457 760.270752,836.735840 
	C760.105286,840.396484 761.337830,841.768005 765.096558,841.692749 
	C774.749756,841.499451 784.413757,841.803894 794.064697,841.559937 
	C798.270935,841.453674 799.514709,842.991699 799.412964,847.048828 
	C799.108887,859.165161 800.507812,857.183411 789.492004,857.323486 
	C781.501099,857.425110 773.504395,857.493103 765.517334,857.294006 
	C761.740295,857.199890 760.049927,858.224609 760.264587,862.349548 
	C760.575623,868.327393 760.460449,874.336792 760.295471,880.326355 
	C760.205811,883.578186 761.449707,884.733521 764.678955,884.698669 
	C775.833374,884.578430 786.992004,884.785034 798.144348,884.592346 
	C802.091614,884.524170 803.396118,885.955872 803.324097,889.820984 
	C803.091919,902.280457 804.174927,900.304138 793.068481,900.376709 
	C777.584473,900.477966 762.098572,900.320740 746.614807,900.443481 
	C743.073364,900.471619 741.574585,899.494202 741.586731,895.659424 
	C741.684326,864.856812 741.608154,834.053711 741.604370,803.250732 
	C741.604248,802.284790 741.811829,801.318787 741.897644,800.569641 
	C743.278687,799.381409 744.667358,799.656067 745.956726,799.654297 
	C763.273010,799.630554 780.590027,799.722351 797.905029,799.575012 
	C801.698425,799.542725 803.622314,800.650940 803.180786,804.640320 
	C803.162598,804.804626 803.183044,804.973022 803.182434,805.139526 
	C803.136658,818.029114 804.355713,816.041443 791.972290,816.219421 
z"/>
<path fill="#000000" opacity="1.000000" stroke="none" 
	d="
M664.000183,799.632812 
	C682.490845,799.634277 700.482971,799.762878 718.471069,799.549194 
	C722.996643,799.495422 724.584045,800.806396 724.414490,805.455627 
	C723.966675,817.728149 725.830994,816.039246 713.813110,816.191650 
	C708.816528,816.255066 703.818481,816.199829 698.821106,816.206970 
	C692.358337,816.216248 692.348999,816.219849 692.347046,822.924194 
	C692.340088,846.578552 692.346130,870.232971 692.333435,893.887329 
	C692.329956,900.372559 692.306641,900.463196 685.653015,900.377686 
	C672.239868,900.205200 673.958130,902.288025 673.888123,888.828674 
	C673.772827,866.674133 673.720947,844.517517 673.927734,822.364441 
	C673.972473,817.573853 672.528015,815.870483 667.692200,816.112610 
	C660.880127,816.453674 654.034607,816.062866 647.208618,816.216064 
	C643.713257,816.294556 642.550232,814.878235 642.617310,811.481934 
	C642.898804,797.247498 640.975830,799.954529 654.005188,799.647095 
	C657.168579,799.572388 660.335083,799.634094 664.000183,799.632812 
z"/>
<path fill="#000000" opacity="1.000000" stroke="none" 
	d="
M612.017578,816.188293 
	C599.350098,816.177734 599.349304,816.177734 599.348877,828.187805 
	C599.348022,849.993530 599.348206,871.799194 599.348022,893.604919 
	C599.348022,895.586853 599.348083,897.568726 599.348083,900.257141 
	C593.725220,900.257141 588.464417,900.450989 583.226868,900.185974 
	C579.968323,900.021118 580.779053,897.087891 580.770813,895.113770 
	C580.696655,877.303345 580.717285,859.492493 580.709229,841.681763 
	C580.706238,835.023560 580.443420,828.352051 580.785645,821.711670 
	C581.020081,817.162964 579.244873,815.966919 574.997620,816.135681 
	C568.184570,816.406616 561.349670,816.073853 554.527710,816.198608 
	C550.895691,816.265015 549.524048,814.850769 549.605225,811.175171 
	C549.909546,797.389709 548.008972,799.760071 560.787659,799.669067 
	C582.092896,799.517334 603.401001,799.744080 624.705444,799.547974 
	C629.081665,799.507751 630.506287,800.794250 630.377136,805.204285 
	C630.011292,817.691528 631.835754,816.015869 619.504761,816.195679 
	C617.174866,816.229675 614.843933,816.192444 612.017578,816.188293 
z"/>
<path fill="#000000" opacity="1.000000" stroke="none" 
	d="
M439.087799,638.686646 
	C444.185394,639.034180 450.042480,636.726746 453.100708,639.670593 
	C456.395416,642.842102 454.265015,648.834717 454.281250,653.572449 
	C454.392517,686.026978 454.248627,718.482666 454.437012,750.936462 
	C454.465393,755.825806 453.299469,758.009766 448.068268,757.463989 
	C444.116211,757.051575 440.083282,757.251221 436.094818,757.401794 
	C432.887939,757.522827 431.621429,756.219116 431.659180,753.019226 
	C431.757355,744.698792 431.664551,736.376282 431.665771,728.054565 
	C431.669769,700.592773 431.662964,673.130920 431.703705,645.669128 
	C431.713898,638.796082 431.788696,638.796204 439.087799,638.686646 
z"/>
<path fill="#000000" opacity="1.000000" stroke="none" 
	d="
M605.353149,739.998657 
	C605.345520,744.664917 605.215515,748.836060 605.370178,752.996582 
	C605.488525,756.181458 604.306824,757.536194 601.032166,757.413269 
	C596.538757,757.244751 592.025513,757.212219 587.536682,757.438171 
	C583.859314,757.623230 582.560913,756.240845 582.605774,752.548401 
	C582.759827,739.883850 582.654358,727.216248 582.655273,714.549805 
	C582.656921,691.216858 582.771301,667.883057 582.576416,644.551819 
	C582.538330,639.995850 583.857361,638.206238 588.490845,638.605774 
	C592.295593,638.933899 596.167358,638.884888 599.980591,638.607300 
	C604.112427,638.306458 605.460815,639.854187 605.422241,644.001221 
	C605.246948,662.832581 605.346741,681.666504 605.348206,700.499512 
	C605.349243,713.499329 605.351440,726.499084 605.353149,739.998657 
z"/>
<path fill="#000000" opacity="1.000000" stroke="none" 
	d="
M515.031555,854.000000 
	C515.021362,837.530273 515.119507,821.559204 514.932739,805.591553 
	C514.881226,801.183228 516.120483,799.149536 520.858093,799.581604 
	C524.779724,799.939331 528.759888,799.654785 533.046570,799.654785 
	C533.046570,833.380188 533.046570,866.542542 533.046570,899.912781 
	C527.887878,900.846985 522.918823,900.429138 517.988281,900.253967 
	C514.407043,900.126648 515.187256,897.039917 515.168091,894.922791 
	C515.046082,881.449219 515.061890,867.974426 515.031555,854.000000 
z"/>
<path fill="#000000" opacity="1.000000" stroke="none" 
	d="
M660.787598,293.737579 
	C660.716431,282.933319 660.716431,272.602448 660.682861,262.271667 
	C660.674744,259.774811 660.753540,257.604950 664.235474,257.631195 
	C675.549194,257.716492 686.864014,257.663086 697.743896,257.663086 
	C699.323425,258.785400 699.123352,260.033020 699.122314,261.158722 
	C699.112854,271.322998 699.013550,281.487549 699.066528,291.651367 
	C699.082031,294.629639 698.371704,296.336914 694.905334,296.287506 
	C684.909363,296.144928 674.910217,296.245514 664.912598,296.192413 
	C663.310669,296.183899 661.439270,296.425995 660.787598,293.737579 
z"/>
<path fill="#000000" opacity="1.000000" stroke="none" 
	d="
M740.970581,221.638672 
	C745.780396,221.638641 750.096130,221.638641 754.150757,221.638641 
	C755.334290,222.532562 755.308960,223.568192 755.310669,224.553314 
	C755.329041,235.042816 755.253357,245.533249 755.376404,256.021393 
	C755.414246,259.246246 754.203003,260.431122 750.987854,260.390167 
	C741.165894,260.265015 731.340820,260.299805 721.517822,260.375458 
	C718.718811,260.396973 717.359802,259.788940 717.423889,256.458313 
	C717.647095,244.852158 717.510193,233.239059 717.510193,221.638687 
	C725.191711,221.638687 732.834106,221.638687 740.970581,221.638672 
z"/>
<path fill="#000000" opacity="1.000000" stroke="none" 
	d="
M702.099121,133.812836 
	C712.831177,133.693939 723.151001,133.782318 733.465393,133.585022 
	C737.107239,133.515350 738.470154,134.699814 738.394836,138.435120 
	C738.200134,148.083984 738.163147,157.743790 738.412476,167.390198 
	C738.518433,171.490845 736.870850,172.403656 733.129089,172.398926 
	C722.532837,172.385544 711.921997,171.836075 700.657471,172.909592 
	C700.657471,162.742249 700.555847,152.641144 700.722046,142.544479 
	C700.769287,139.674011 699.569397,136.575287 702.099121,133.812836 
z"/>
<path fill="#000000" opacity="1.000000" stroke="none" 
	d="
M663.978271,176.653275 
	C677.067017,176.823395 675.104370,175.090118 675.237976,187.544128 
	C675.320068,195.196899 675.137207,202.853195 675.272583,210.504379 
	C675.332153,213.874359 674.182434,215.307846 670.662048,215.247650 
	C661.180725,215.085541 651.694214,215.092773 642.211609,215.198807 
	C638.734070,215.237686 637.565491,213.776871 637.611511,210.407349 
	C637.745605,200.592377 637.744568,190.773346 637.616760,180.958252 
	C637.574402,177.707504 638.829773,176.559357 642.018616,176.621307 
	C649.170471,176.760208 656.326965,176.657806 663.978271,176.653275 
z"/>
</svg>