<?xml version="1.0" standalone="no"?>
<!DOCTYPE svg PUBLIC "-//W3C//DTD SVG 20010904//EN"
 "http://www.w3.org/TR/2001/REC-SVG-20010904/DTD/svg10.dtd">
<svg version="1.0" xmlns="http://www.w3.org/2000/svg"
 width="1024.000000pt" height="1024.000000pt" viewBox="0 0 1024.000000 1024.000000"
 preserveAspectRatio="xMidYMid meet">

<g transform="translate(0.000000,1024.000000) scale(0.100000,-0.100000)"
fill="#000000" stroke="none">
<path d="M3749 9310 c-443 -43 -842 -229 -1168 -544 -209 -203 -357 -440 -437
-701 -27 -87 -28 -99 -30 -335 -2 -295 -5 -307 -124 -465 -130 -173 -178 -304
-166 -456 6 -93 34 -168 87 -243 61 -86 61 -104 -4 -228 -39 -74 -57 -121 -62
-162 -21 -169 88 -358 273 -473 85 -53 262 -118 353 -128 50 -6 59 -10 54 -24
-17 -45 -136 -240 -208 -340 -45 -62 -97 -133 -114 -158 -41 -57 -43 -95 -5
-132 24 -25 38 -29 112 -35 314 -27 617 -140 965 -360 296 -188 455 -281 600
-351 245 -119 505 -205 622 -205 45 0 55 4 69 25 22 33 13 63 -36 128 -80 104
-101 263 -66 496 9 58 16 105 16 106 0 6 320 -7 353 -15 125 -29 277 -1 369
66 157 115 256 412 215 639 -21 111 -51 185 -113 277 -30 43 -54 86 -54 94 0
8 7 38 17 66 14 43 14 58 4 99 l-12 48 39 39 c54 54 67 97 66 223 l0 106 84 7
c143 11 216 70 236 191 14 85 -55 323 -191 660 -127 311 -117 263 -118 560 -2
271 -12 416 -46 624 -43 274 -142 461 -318 606 -181 147 -421 241 -717 280
-141 18 -430 27 -545 15z m539 -145 c296 -42 512 -134 679 -289 167 -155 239
-348 273 -732 12 -137 17 -360 8 -369 -3 -3 -29 4 -59 15 -103 41 -214 61
-337 61 -132 1 -207 -10 -319 -47 -122 -40 -384 -174 -405 -207 -22 -34 5 -97
42 -97 9 0 82 33 163 74 245 125 424 169 597 147 90 -11 195 -43 268 -80 38
-20 42 -25 42 -60 0 -54 29 -142 104 -317 113 -264 216 -578 216 -659 0 -41
-26 -82 -61 -94 -20 -7 -117 -11 -254 -11 -212 0 -224 1 -250 21 -24 19 -26
27 -21 63 13 88 -3 126 -51 126 -65 0 -103 -118 -68 -215 8 -22 15 -41 15 -41
0 -1 -50 -32 -110 -69 -133 -81 -196 -137 -275 -244 -33 -44 -66 -81 -73 -81
-27 0 -100 42 -135 78 -21 21 -48 66 -62 102 -37 94 -83 155 -185 245 -123
108 -286 288 -357 396 l-25 38 38 41 c46 49 107 138 139 200 52 103 58 236 15
368 -12 40 -25 71 -27 69 -2 -2 -10 -42 -17 -88 -44 -270 -217 -534 -454 -691
l-83 -55 -2 -204 -2 -204 -33 -67 c-72 -146 -218 -227 -412 -228 l-85 0 -66
-178 -65 -177 -70 2 c-80 2 -219 40 -304 83 -134 68 -233 199 -246 325 -6 59
-5 63 50 167 30 59 58 124 62 145 8 54 -11 117 -58 190 -47 73 -78 166 -78
231 0 103 41 198 145 337 130 175 163 282 144 467 -22 217 28 431 153 653 189
336 499 602 883 758 156 64 298 96 525 120 77 9 382 -3 488 -18z m-653 -2445
c45 -75 75 -168 75 -235 0 -71 -26 -148 -89 -259 -61 -110 -75 -164 -69 -271
5 -67 13 -100 48 -181 l42 -98 -18 -81 c-24 -107 -25 -253 -1 -325 25 -77 83
-158 141 -197 26 -18 87 -45 135 -60 65 -20 98 -37 135 -69 67 -59 149 -101
242 -124 43 -11 80 -22 83 -25 3 -3 -7 -79 -22 -168 -33 -197 -35 -319 -7
-408 10 -35 18 -65 16 -67 -7 -6 -91 20 -206 65 -213 84 -387 180 -764 423
-321 207 -678 350 -934 375 -40 4 -72 10 -72 13 0 3 18 28 39 56 127 166 279
450 356 661 19 55 43 119 51 143 13 35 20 42 42 42 58 1 171 31 242 66 142 70
256 217 279 361 5 33 7 121 4 196 l-5 136 47 33 c26 18 66 47 89 65 l41 32 23
-22 c13 -12 39 -47 57 -77z m242 -307 c23 -40 28 -59 28 -118 0 -64 -4 -76
-42 -143 -78 -135 -80 -200 -8 -353 52 -109 55 -137 25 -279 -25 -121 -25
-187 0 -285 11 -43 18 -81 15 -83 -11 -11 -80 35 -107 72 -58 80 -73 201 -42
346 20 94 16 123 -32 241 -31 79 -38 106 -38 169 -1 83 11 120 76 228 44 73
78 167 78 217 0 48 14 44 47 -12z m1351 -62 c10 -11 12 -43 10 -108 -3 -81 -6
-94 -28 -118 -25 -27 -27 -27 -116 -21 -108 7 -177 -4 -262 -44 -72 -34 -168
-123 -200 -187 l-21 -41 60 -7 61 -7 57 55 c69 68 123 95 200 103 112 12 161
-10 161 -72 0 -31 -4 -37 -42 -54 -24 -11 -52 -20 -64 -20 -26 0 -48 -24 -69
-73 -13 -32 -13 -38 -1 -43 21 -8 76 -8 121 0 l40 7 52 -79 c99 -148 131 -249
118 -375 -9 -96 -30 -171 -71 -254 -36 -75 -55 -88 -75 -52 -13 26 -8 70 20
174 27 98 23 176 -14 251 -42 85 -53 86 -47 4 6 -84 -8 -160 -48 -264 -37 -94
-40 -168 -10 -227 25 -48 20 -59 -27 -59 -101 0 -204 143 -187 260 3 25 20 77
37 115 57 129 37 259 -50 335 -19 17 -37 29 -39 27 -2 -2 1 -46 7 -98 13 -104
10 -122 -50 -289 -45 -125 -39 -219 20 -301 12 -17 19 -32 17 -34 -3 -3 -24 8
-49 24 -109 70 -178 181 -186 298 -4 55 0 84 21 148 46 142 30 245 -51 335
-25 27 -48 50 -52 50 -5 0 -2 -33 6 -72 18 -91 12 -197 -17 -303 -27 -98 -30
-208 -6 -290 18 -62 54 -131 82 -160 28 -27 9 -26 -45 3 -104 55 -180 151
-213 271 -24 86 -23 163 3 274 24 102 23 202 -4 252 -17 34 -85 105 -100 105
-5 0 -6 -8 -2 -17 4 -10 9 -61 12 -113 4 -77 1 -111 -16 -178 -45 -175 -37
-328 24 -450 19 -37 33 -68 31 -69 -9 -9 -112 76 -145 120 -101 133 -120 263
-70 473 24 103 19 157 -25 244 -48 94 -68 167 -57 206 5 18 27 62 50 100 24
39 46 93 53 126 l12 59 23 -38 c13 -21 28 -55 33 -75 15 -54 83 -138 146 -181
47 -31 106 -54 216 -83 12 -4 34 22 83 95 79 119 131 169 267 257 182 119 164
112 291 107 88 -4 115 -9 125 -22z"/>
<path d="M4730 7521 c-157 -46 -304 -113 -316 -146 -11 -27 6 -65 31 -75 20
-8 42 -3 103 21 42 17 107 42 144 55 l68 23 -2 -51 c-3 -56 15 -78 62 -78 46
0 67 25 84 99 30 132 17 182 -47 180 -18 0 -75 -13 -127 -28z"/>
<path d="M5689 8833 c0 -5 0 -378 0 -830 l0 -822 45 -133 c25 -73 56 -173 70
-223 l25 -90 0 978 1 977 1219 0 c1095 0 1221 -2 1235 -16 14 -14 16 -107 16
-877 l0 -861 75 74 75 74 0 785 c0 591 -3 794 -12 825 -18 58 -82 120 -140
134 -53 14 -2607 18 -2609 5z"/>
<path d="M6263 8060 c-48 -20 -58 -87 -17 -119 26 -21 33 -21 809 -21 776 0
783 0 809 21 31 25 34 66 7 100 l-19 24 -784 2 c-439 1 -793 -2 -805 -7z"/>
<path d="M6236 7528 c-22 -31 -20 -74 4 -98 20 -20 33 -20 635 -20 602 0 615
0 635 20 24 24 26 67 4 98 l-15 22 -624 0 -624 0 -15 -22z"/>
<path d="M6313 7042 c-51 -2 -65 -7 -78 -25 -22 -31 -19 -70 8 -95 23 -22 26
-22 434 -22 384 0 412 1 434 18 29 25 30 75 1 105 -22 21 -26 21 -380 22 -196
0 -385 -1 -419 -3z"/>
<path d="M8545 6851 c-16 -10 -81 -70 -142 -133 l-113 -113 238 -238 238 -238
121 124 c131 134 152 170 138 243 -5 32 -32 64 -158 192 -84 85 -166 161 -184
168 -45 19 -103 17 -138 -5z"/>
<path d="M7636 5947 l-562 -562 -42 -134 c-24 -74 -72 -205 -108 -290 -36 -86
-66 -170 -67 -188 -1 -37 23 -68 59 -77 33 -9 303 81 508 169 l156 67 540 547
c297 300 541 549 542 553 2 4 -102 113 -231 242 l-234 235 -561 -562z m-207
-920 c-7 -9 -372 -147 -376 -143 -1 1 20 57 47 124 27 66 59 153 71 192 l21
71 122 -118 c68 -65 119 -122 115 -126z"/>
<path d="M5807 6428 c-11 -28 -37 -64 -69 -94 l-50 -47 -1 -751 -1 -751 419
-3 c474 -3 465 -4 465 68 0 70 2 70 -392 70 l-348 0 -2 778 c-3 760 -3 776
-21 730z"/>
<path d="M8372 5407 l-72 -72 -2 -205 -3 -205 -50 -2 c-27 -1 -69 -2 -93 -2
l-43 -1 -29 -66 c-17 -36 -30 -68 -30 -70 0 -2 90 -4 200 -4 l200 0 0 350 c0
193 -1 350 -3 350 -1 0 -35 -33 -75 -73z"/>
<path d="M9308 3613 c-9 -2 -19 -11 -22 -18 -3 -8 -6 -130 -7 -270 0 -140 -2
-255 -4 -255 -1 0 -20 16 -41 35 -113 104 -291 124 -450 51 -63 -29 -155 -113
-190 -172 -67 -114 -93 -308 -60 -448 34 -145 131 -267 263 -329 64 -30 74
-32 183 -32 105 0 120 2 170 27 30 15 74 45 98 67 23 21 42 38 43 37 0 0 2
-21 5 -45 2 -24 7 -47 10 -52 3 -5 52 -9 109 -9 93 0 105 2 115 19 6 13 10
247 10 690 0 789 14 712 -127 710 -49 -1 -95 -3 -105 -6z m-161 -669 c95 -45
143 -134 143 -262 0 -88 -21 -146 -73 -201 -96 -101 -271 -109 -359 -15 -52
56 -72 119 -73 224 0 84 3 101 28 153 62 126 197 167 334 101z"/>
<path d="M3718 3580 c-44 -36 -63 -87 -54 -144 13 -81 59 -116 152 -117 41 -1
64 4 83 18 57 42 77 131 45 199 -23 48 -70 74 -135 74 -46 0 -60 -5 -91 -30z"/>
<path d="M5353 3590 c-88 -53 -96 -170 -17 -240 31 -27 42 -30 99 -30 54 0 68
4 95 27 38 32 52 64 51 120 -1 88 -57 143 -146 143 -32 0 -62 -7 -82 -20z"/>
<path d="M1128 3185 c-91 -22 -149 -55 -214 -120 -76 -76 -112 -150 -132 -274
-42 -253 51 -477 234 -569 80 -40 143 -53 244 -53 106 0 165 14 253 59 71 37
167 130 167 163 0 25 -39 52 -110 79 l-61 23 -37 -35 c-75 -71 -107 -83 -214
-83 -92 0 -98 1 -135 30 -42 34 -90 120 -100 178 l-6 37 336 0 c399 0 373 -8
363 115 -10 138 -54 250 -127 329 -100 109 -297 160 -461 121z m219 -201 c58
-28 107 -93 118 -156 l7 -38 -230 0 -231 0 14 47 c19 64 61 113 125 146 70 35
128 36 197 1z"/>
<path d="M4597 3189 c-61 -14 -129 -54 -177 -104 l-45 -46 -5 63 -5 63 -100 0
c-96 0 -100 -1 -112 -25 -10 -19 -13 -171 -13 -673 l0 -648 25 -24 c21 -22 33
-25 103 -25 64 0 85 4 103 19 l24 19 0 246 c0 135 1 246 3 246 2 0 24 -18 50
-39 70 -60 132 -83 232 -89 133 -7 232 27 327 112 106 95 152 202 160 371 8
178 -30 296 -130 402 -60 64 -131 107 -212 128 -64 16 -167 18 -228 4z m170
-241 c90 -42 137 -131 137 -258 1 -102 -25 -171 -85 -224 -38 -35 -118 -66
-169 -66 -100 0 -214 80 -249 176 -91 243 141 479 366 372z"/>
<path d="M6775 3190 c-104 -21 -216 -84 -267 -152 -74 -97 -108 -212 -108
-369 0 -159 38 -266 131 -364 87 -92 204 -136 360 -137 102 0 203 31 285 87
54 37 124 118 124 142 0 16 -45 45 -117 74 l-53 21 -44 -40 c-72 -67 -99 -77
-203 -77 -86 0 -94 2 -135 30 -46 33 -91 110 -103 178 l-7 37 335 0 c379 0
367 -2 367 75 0 71 -28 194 -59 261 -16 35 -50 85 -75 112 -94 101 -278 152
-431 122z m195 -205 c60 -31 119 -116 120 -172 l0 -23 -225 0 c-254 0 -243 -5
-204 80 31 70 73 106 149 131 36 12 123 3 160 -16z"/>
<path d="M7764 3186 c-34 -8 -79 -23 -100 -34 -81 -42 -144 -133 -160 -230
-10 -64 2 -72 107 -72 l88 0 35 53 c49 74 84 92 176 92 141 -1 200 -49 200
-165 l0 -50 -72 0 c-98 0 -289 -18 -347 -32 -157 -38 -230 -128 -231 -283 0
-144 67 -235 203 -277 57 -17 87 -20 170 -16 119 5 172 25 240 87 24 23 47 41
51 41 3 0 6 -14 6 -31 0 -63 10 -69 120 -69 90 0 100 2 110 21 17 31 8 703
-10 749 -38 98 -114 165 -230 201 -85 27 -270 35 -356 15z m346 -589 c0 -83
-64 -183 -136 -213 -83 -35 -216 -6 -242 51 -17 36 -15 96 3 122 26 37 130 59
293 62 79 1 82 0 82 -22z"/>
<path d="M3383 3176 c-59 -15 -119 -52 -163 -103 l-30 -34 0 46 c0 79 -7 85
-110 85 -48 0 -95 -3 -104 -6 -14 -5 -16 -57 -16 -473 0 -350 3 -470 12 -479
16 -16 200 -16 216 0 9 9 12 83 12 270 0 233 2 262 20 311 37 97 125 156 236
157 l62 0 16 88 c23 126 23 129 -21 141 -47 13 -64 13 -130 -3z"/>
<path d="M6204 3176 c-63 -15 -107 -42 -159 -96 l-40 -41 -5 63 -5 63 -99 3
c-64 2 -103 -1 -112 -9 -12 -9 -14 -89 -14 -466 0 -294 4 -461 10 -474 10 -17
22 -19 113 -19 67 0 107 4 115 12 9 9 12 81 12 263 0 281 8 329 62 391 44 50
100 75 182 83 l71 6 17 100 c14 79 15 103 5 112 -19 19 -96 24 -153 9z"/>
<path d="M1879 3153 c-11 -13 -14 -80 -16 -322 -2 -168 2 -337 7 -374 18 -119
78 -205 178 -254 51 -25 67 -28 162 -28 98 0 109 2 158 30 30 16 71 47 93 68
l39 39 0 -45 c0 -26 6 -49 14 -56 9 -8 47 -11 107 -9 86 3 94 5 105 26 18 37
14 903 -5 925 -11 14 -33 17 -117 17 -92 0 -104 -2 -114 -19 -6 -12 -10 -126
-10 -299 0 -293 -3 -321 -46 -379 -49 -65 -184 -83 -254 -33 -63 45 -65 53
-68 395 -2 198 -7 314 -14 322 -7 9 -41 13 -108 13 -79 0 -100 -3 -111 -17z"/>
<path d="M3702 3158 c-16 -16 -17 -909 -2 -939 10 -17 22 -19 113 -19 67 0
107 4 115 12 17 17 17 929 0 946 -8 8 -48 12 -113 12 -65 0 -105 -4 -113 -12z"/>
<path d="M5310 3151 c-15 -30 -14 -923 2 -939 16 -16 210 -16 226 0 17 17 17
929 0 946 -8 8 -48 12 -115 12 -91 0 -103 -2 -113 -19z"/>
</g>
</svg>
